<svg xmlns="http://www.w3.org/2000/svg" viewBox="0 0 318.92 107.5"><title>logo-white</title><path d="M103,75H97.5v-30H103V75Z" fill="#fff" stroke="#fff" stroke-miterlimit="10"/><path d="M128.09,75h-5.31V63.5a7.79,7.79,0,0,0-1-4.43,3.67,3.67,0,0,0-3.23-1.43,5.08,5.08,0,0,0-4,1.84V75h-5.31V53.62h5l0.09,1.28A8,8,0,0,1,119,53.28q9.11,0,9.11,10.23V75Z" fill="#fff" stroke="#fff" stroke-miterlimit="10"/><path d="M145,75H133.74v-30H145a16.46,16.46,0,0,1,6,1,13.27,13.27,0,0,1,4.66,3,13.67,13.67,0,0,1,3,4.71,18.34,18.34,0,0,1,0,12.47,13,13,0,0,1-7.7,7.68A16.45,16.45,0,0,1,145,75Zm0-24.73h-5.73V69.79H145a8.23,8.23,0,0,0,6.53-2.56q2.24-2.56,2.25-7.2t-2.25-7.2A8.23,8.23,0,0,0,145,50.28Z" fill="#fff" stroke="#fff" stroke-miterlimit="10"/><path d="M182.57,71.08l-0.47,4.36h-1.93q-3.46,0-4.79-2.48-2.22,2.48-6.55,2.48a6.61,6.61,0,0,1-2.46-.45,5.72,5.72,0,0,1-2-1.28,5.9,5.9,0,0,1-1.3-2,7.14,7.14,0,0,1-.47-2.68,5.3,5.3,0,0,1,1.28-3.64A9.66,9.66,0,0,1,167,63.05a15.75,15.75,0,0,1,3.92-1.26,24,24,0,0,1,3.7-.43,3.83,3.83,0,0,0-.94-2.72,4.26,4.26,0,0,0-2.91-.79,13.75,13.75,0,0,0-5.86,1.63l-0.47-4.32a18.13,18.13,0,0,1,7.79-1.88q7.74,0,7.75,8.6v5.78q0,1.16.06,1.84a2.87,2.87,0,0,0,.26,1,0.83,0.83,0,0,0,.58.45,4.57,4.57,0,0,0,1,.09h0.68Zm-7.87-1.24V65a16.86,16.86,0,0,0-2.42.34,7.73,7.73,0,0,0-2.08.75,4.82,4.82,0,0,0-1.45,1.18,2.43,2.43,0,0,0-.56,1.58q0,2.57,2.87,2.57A5.17,5.17,0,0,0,174.69,69.83Z" fill="#fff" stroke="#fff" stroke-miterlimit="10"/><path d="M197.28,71.08l-0.47,4.36H193a6.36,6.36,0,0,1-2.48-.45,5.33,5.33,0,0,1-1.8-1.2A4.81,4.81,0,0,1,187.63,72a6.49,6.49,0,0,1-.36-2.18V58h-3l0.47-4.36h2.57V48.91l5.31-.56v5.26h4.71V58h-4.71v9.67a16.41,16.41,0,0,0,.09,1.93,1.79,1.79,0,0,0,.41,1,1.47,1.47,0,0,0,1,.41q0.64,0.06,1.8.06h1.45Z" fill="#fff" stroke="#fff" stroke-miterlimit="10"/><path d="M220,71.08l-0.47,4.36h-1.93q-3.46,0-4.79-2.48-2.22,2.48-6.55,2.48a6.61,6.61,0,0,1-2.46-.45,5.72,5.72,0,0,1-2-1.28,5.9,5.9,0,0,1-1.3-2A7.14,7.14,0,0,1,200,69a5.3,5.3,0,0,1,1.28-3.64,9.66,9.66,0,0,1,3.12-2.33,15.75,15.75,0,0,1,3.92-1.26,24,24,0,0,1,3.7-.43,3.83,3.83,0,0,0-.94-2.72,4.26,4.26,0,0,0-2.91-.79,13.75,13.75,0,0,0-5.86,1.63l-0.47-4.32a18.13,18.13,0,0,1,7.79-1.88q7.74,0,7.75,8.6v5.78q0,1.16.06,1.84a2.87,2.87,0,0,0,.26,1,0.83,0.83,0,0,0,.58.45,4.57,4.57,0,0,0,1,.09H220Zm-7.87-1.24V65a16.86,16.86,0,0,0-2.42.34,7.73,7.73,0,0,0-2.08.75,4.82,4.82,0,0,0-1.45,1.18,2.43,2.43,0,0,0-.56,1.58q0,2.57,2.87,2.57A5.17,5.17,0,0,0,212.09,69.83Z" fill="#fff" stroke="#fff" stroke-miterlimit="10"/><path d="M252.87,75h-17.8v-30h5.48V69.71h12.32V75Z" fill="#fff" stroke="#fff" stroke-miterlimit="10"/><path d="M274.86,71.08l-0.47,4.36h-1.93q-3.46,0-4.79-2.48-2.22,2.48-6.55,2.48a6.61,6.61,0,0,1-2.46-.45,5.72,5.72,0,0,1-2-1.28,5.9,5.9,0,0,1-1.3-2,7.14,7.14,0,0,1-.47-2.68,5.3,5.3,0,0,1,1.28-3.64,9.66,9.66,0,0,1,3.12-2.33,15.75,15.75,0,0,1,3.92-1.26,24,24,0,0,1,3.7-.43,3.83,3.83,0,0,0-.94-2.72,4.26,4.26,0,0,0-2.91-.79,13.75,13.75,0,0,0-5.86,1.63l-0.47-4.32a18.13,18.13,0,0,1,7.79-1.88q7.74,0,7.75,8.6v5.78q0,1.16.06,1.84a2.87,2.87,0,0,0,.26,1,0.83,0.83,0,0,0,.58.45,4.57,4.57,0,0,0,1,.09h0.68ZM267,69.83V65a16.86,16.86,0,0,0-2.42.34,7.73,7.73,0,0,0-2.08.75A4.82,4.82,0,0,0,261,67.22a2.43,2.43,0,0,0-.56,1.58q0,2.57,2.87,2.57A5.17,5.17,0,0,0,267,69.83Z" fill="#fff" stroke="#fff" stroke-miterlimit="10"/><path d="M288.94,75.44a9.17,9.17,0,0,1-5.26-1.63L283.59,75h-5V42.92h5.31V54.69a8.75,8.75,0,0,1,5-1.41,10.8,10.8,0,0,1,4.39.86,9.52,9.52,0,0,1,3.29,2.35A10.5,10.5,0,0,1,298.69,60a12.8,12.8,0,0,1,.73,4.34,12.94,12.94,0,0,1-.71,4.32,10.67,10.67,0,0,1-2,3.53,9.13,9.13,0,0,1-3.29,2.38A11.07,11.07,0,0,1,288.94,75.44Zm-0.36-17.8a4.15,4.15,0,0,0-3.69,1.8,8.69,8.69,0,0,0-1.21,4.92,8.69,8.69,0,0,0,1.21,4.92,4.15,4.15,0,0,0,3.69,1.8,4.72,4.72,0,0,0,4-1.82,7.81,7.81,0,0,0,1.41-4.9,7.81,7.81,0,0,0-1.41-4.9A4.72,4.72,0,0,0,288.57,57.64Z" fill="#fff" stroke="#fff" stroke-miterlimit="10"/><path d="M310,75.44q-4.88,0-7.23-1.58l0.47-4.54a8.07,8.07,0,0,0,1.31.77,14.23,14.23,0,0,0,1.67.68,14.66,14.66,0,0,0,1.82.49,9,9,0,0,0,1.8.19,3.66,3.66,0,0,0,2.52-.69,2.2,2.2,0,0,0,.73-1.67,1.9,1.9,0,0,0-.51-1.43,4.35,4.35,0,0,0-1.48-.86q-1-.36-2.33-0.77a19.26,19.26,0,0,1-3.08-1.26A5.18,5.18,0,0,1,303.78,63a6.48,6.48,0,0,1-.77-2.93,7.31,7.31,0,0,1,.45-2.55,5.92,5.92,0,0,1,1.39-2.16,6.93,6.93,0,0,1,2.42-1.52,9.82,9.82,0,0,1,3.57-.58,16.1,16.1,0,0,1,3.87.47,9,9,0,0,1,2.85,1.11l-0.47,4.54a8.76,8.76,0,0,0-1.13-.86,9.1,9.1,0,0,0-1.43-.75,9.81,9.81,0,0,0-1.63-.51,7.58,7.58,0,0,0-1.67-.19,5,5,0,0,0-2.55.58,1.91,1.91,0,0,0-1,1.78,1.83,1.83,0,0,0,.66,1.54,7,7,0,0,0,1.78.94l0.73,0.21,0.83,0.24,0.88,0.23a16.5,16.5,0,0,1,2.42.9,6.52,6.52,0,0,1,1.86,1.28A5.16,5.16,0,0,1,318,66.62a7.12,7.12,0,0,1,.41,2.53Q318.42,75.44,310,75.44Z" fill="#fff" stroke="#fff" stroke-miterlimit="10"/><path d="M72.36,48.14L48.54,24A5,5,0,0,0,40,27.5V83.09L54.28,68.81A2.47,2.47,0,0,0,55,67.06V54.31a5,5,0,1,1,5,0V69.14a2.48,2.48,0,0,1-.72,1.75L55,75.16l-15,15V102.5a5,5,0,0,0,5,5,9,9,0,0,0,6.36-2.64l21-21A9,9,0,0,0,75,77.5v-23A9,9,0,0,0,72.36,48.14Z" fill="#fff"/><path d="M35,61.09V5a5,5,0,0,0-8.54-3.54L2.64,25.64A9,9,0,0,0,0,32V77.5a9,9,0,0,0,2.64,6.36l21,21A9,9,0,0,0,30,107.5a5,5,0,0,0,5-5V68.16L15.72,48.89A2.47,2.47,0,0,1,15,47.14V31.81a5,5,0,1,1,5,0V45.06a2.47,2.47,0,0,0,.72,1.75Z" fill="#fff"/></svg>